<svg width="300" height="300" viewBox="0 0 300 300" fill="none" xmlns="http://www.w3.org/2000/svg">
<rect width="300" height="300" rx="150" fill="#6C63FF"/>
<path d="M129.64 176.16C126.653 176.16 124.387 175.2 122.84 173.28C121.347 171.307 120.333 167.653 119.8 162.32C119.48 159.547 119.16 155.947 118.84 151.52C115.107 152.64 111.347 153.813 107.56 155.04L104.84 162.56C104.307 164 103.933 165.04 103.72 165.68C103.507 166.267 103.107 167.173 102.52 168.4C101.987 169.627 101.507 170.533 101.08 171.12C100.707 171.653 100.147 172.347 99.4 173.2C98.7067 174.053 97.9867 174.667 97.24 175.04C95.32 176 93.2667 176.48 91.08 176.48C88.8933 176.48 87.1067 175.707 85.72 174.16C84.3867 172.56 83.72 170.613 83.72 168.32C83.72 167.68 83.7733 167.013 83.88 166.32C84.5733 161.2 89.8267 156.533 99.64 152.32C102.413 145.227 107.027 133.28 113.48 116.48C115.187 115.52 117.347 115.04 119.96 115.04C120.547 115.04 121.107 115.04 121.64 115.04C122.173 115.04 122.813 115.04 123.56 115.04C124.36 115.04 125.347 115.2 126.52 115.52C126.573 118.027 127.8 133.573 130.2 162.16C130.413 164.56 130.707 166.133 131.08 166.88C131.453 167.573 132.093 167.92 133 167.92C134.493 167.92 136.467 166.907 138.92 164.88C141.427 162.853 143.667 160.32 145.64 157.28L147.88 162.72L145.96 165.28C140.36 172.533 134.92 176.16 129.64 176.16ZM116.92 128.96L109.96 148.4C113.693 147.12 116.467 146.187 118.28 145.6L116.92 128.96ZM96.84 159.28C91.88 161.787 89.4 164.24 89.4 166.64C89.4 168.347 90.04 169.2 91.32 169.2C92.28 169.2 93.0533 168.507 93.64 167.12C94.3333 165.627 95.4 163.013 96.84 159.28ZM147.949 166.4C149.229 165.12 150.776 164.48 152.589 164.48C154.403 164.48 155.949 165.12 157.229 166.4C158.509 167.68 159.149 169.227 159.149 171.04C159.149 172.853 158.509 174.4 157.229 175.68C155.949 176.907 154.403 177.52 152.589 177.52C150.776 177.52 149.229 176.907 147.949 175.68C146.723 174.4 146.109 172.853 146.109 171.04C146.109 169.227 146.723 167.68 147.949 166.4ZM175.892 117.12C177.119 115.84 178.612 115.2 180.372 115.2C182.132 115.2 183.625 115.84 184.852 117.12C186.132 118.347 186.772 119.84 186.772 121.6C186.772 123.36 186.132 124.853 184.852 126.08C183.625 127.307 182.132 127.92 180.372 127.92C178.612 127.92 177.119 127.307 175.892 126.08C174.665 124.853 174.052 123.36 174.052 121.6C174.052 119.84 174.665 118.347 175.892 117.12ZM172.612 140.56C173.145 139.6 174.159 138.88 175.652 138.4C177.145 137.867 178.612 137.6 180.052 137.6C181.545 137.6 182.852 137.787 183.972 138.16C181.892 154.213 180.852 162.32 180.852 162.48C180.585 163.547 180.452 164.453 180.452 165.2C180.452 165.893 180.505 166.507 180.612 167.04C180.825 168.427 181.785 169.12 183.492 169.12C185.252 169.12 186.852 168 188.292 165.76C189.785 163.467 190.905 160.88 191.652 158C192.025 158.213 192.612 158.853 193.412 159.92C194.212 160.987 194.692 161.787 194.852 162.32C193.785 166.587 191.972 170.027 189.412 172.64C186.852 175.253 183.785 176.56 180.212 176.56C176.639 176.56 173.972 175.68 172.212 173.92C170.505 172.16 169.652 169.893 169.652 167.12C169.652 166.533 169.679 165.92 169.732 165.28L172.612 140.56ZM206.488 124.64C205.368 127.093 203.714 129.12 201.528 130.72C199.341 132.32 196.968 133.12 194.408 133.12C191.848 133.12 189.741 132.373 188.088 130.88C186.488 129.387 185.688 127.173 185.688 124.24C185.688 121.307 186.994 119.067 189.608 117.52C192.221 115.92 195.288 115.12 198.808 115.12H230.568C230.728 115.867 230.808 116.587 230.808 117.28C230.808 119.093 230.221 120.773 229.048 122.32C227.874 123.867 226.088 124.64 223.688 124.64C223.581 124.64 223.501 124.64 223.448 124.64H206.488ZM196.088 124.64C194.114 124.64 193.128 125.333 193.128 126.72C193.128 127.84 193.981 128.4 195.688 128.4C196.488 128.4 197.421 128.053 198.488 127.36C199.608 126.667 200.541 125.76 201.288 124.64H196.088ZM212.648 160.64C211.314 171.093 206.594 176.32 198.488 176.32C195.608 176.32 193.288 175.44 191.528 173.68C189.821 171.92 188.968 169.707 188.968 167.04C188.968 160.8 193.714 155.467 203.208 151.04L206.008 129.76C208.194 128.373 210.728 127.68 213.608 127.68C214.941 127.68 216.221 127.813 217.448 128.08L212.648 160.64ZM202.328 157.84C197.368 160.72 194.888 163.493 194.888 166.16C194.888 168.08 195.821 169.04 197.688 169.04C199.821 169.04 201.154 166.987 201.688 162.88L202.328 157.84Z" fill="white"/>
</svg>
